<svg width="200" height="25" viewBox="0 0 200 25" fill="none" xmlns="http://www.w3.org/2000/svg">
<path d="M7.424 13.04C7.104 12.5493 7.168 12.08 7.616 11.632C7.872 11.4613 8.544 11.3973 9.632 11.44C10.7413 11.4613 11.6267 11.632 12.288 11.952C13.184 12.3787 13.472 13.4453 13.152 15.152C12.96 15.984 12.3093 17.232 11.2 18.896C10.7093 19.5787 9.97333 20.3253 8.992 21.136C8.032 21.9253 7.25333 22.4373 6.656 22.672C4.48 23.632 2.86933 23.7387 1.824 22.992C1.248 22.6293 0.789334 22.1173 0.448 21.456C0.128 20.7947 -0.0106665 20.112 0.0320001 19.408C0.0106667 16.8907 0.448 14.2347 1.344 11.44C2.26133 8.77333 3.104 6.78933 3.872 5.488C4.66133 4.18667 5.41867 3.16267 6.144 2.416C6.86933 1.66933 7.43467 1.17867 7.84 0.943998C8.864 0.346665 10.1653 0.175999 11.744 0.431999C12.96 0.751999 13.792 1.11467 14.24 1.52C14.2827 1.60533 14.3787 1.744 14.528 1.936C15.04 2.59733 15.0293 3.216 14.496 3.792C14.176 4.112 13.888 4.12267 13.632 3.824C13.4187 3.48267 13.2053 3.248 12.992 3.12C12.8 2.97067 12.5547 2.82133 12.256 2.672C11.9787 2.52267 11.8293 2.448 11.808 2.448C11.4667 2.21333 10.9333 2.13867 10.208 2.224C9.504 2.30933 8.93867 2.53333 8.512 2.896C8.10667 3.23733 7.62667 3.74933 7.072 4.432C6.51733 5.09333 6.09067 5.712 5.792 6.288C4.512 8.528 3.60533 10.64 3.072 12.624C2.53867 14.5867 2.21867 15.9627 2.112 16.752C2.00533 17.5413 1.93067 18.1493 1.888 18.576C1.86667 19.0027 1.86667 19.4293 1.888 19.856C1.93067 20.2613 2.016 20.592 2.144 20.848C2.29333 21.0827 2.48533 21.2747 2.72 21.424C3.232 21.7653 4.05333 21.7333 5.184 21.328C5.888 21.2427 6.688 20.8373 7.584 20.112C8.48 19.3653 9.22667 18.5227 9.824 17.584C10.9333 15.536 11.4027 14.2347 11.232 13.68C11.1467 13.4453 10.9227 13.3173 10.56 13.296C10.2187 13.2747 9.68533 13.264 8.96 13.264C8.256 13.264 7.744 13.1893 7.424 13.04ZM20.7375 14.096C21.1002 13.9467 21.4628 13.68 21.8255 13.296C22.2095 12.912 22.4015 12.5813 22.4015 12.304C22.4015 12.0053 22.2522 11.7707 21.9535 11.6C21.6548 11.408 21.3028 11.3653 20.8975 11.472C20.4922 11.5787 20.0762 11.824 19.6495 12.208C19.2228 12.592 18.8708 12.976 18.5935 13.36C18.3162 13.7227 18.2095 13.936 18.2735 14C18.3588 14.1707 18.7002 14.2667 19.2975 14.288C19.8948 14.3093 20.3748 14.2453 20.7375 14.096ZM20.6735 19.28C20.7375 19.2373 20.7695 19.216 20.7695 19.216C20.7908 19.216 20.8122 19.2053 20.8335 19.184C20.8762 19.1627 20.8975 19.1413 20.8975 19.12C21.0468 18.992 21.2282 18.8213 21.4415 18.608C21.6762 18.3733 21.8468 18.256 21.9535 18.256C22.0602 18.256 22.1668 18.3093 22.2735 18.416C22.4015 18.5227 22.4868 18.5867 22.5295 18.608C22.8708 18.608 22.8175 18.8853 22.3695 19.44C21.9428 19.9947 21.4095 20.4747 20.7695 20.88C20.0868 21.4773 19.2762 21.7013 18.3375 21.552C17.4202 21.3813 16.6842 20.912 16.1295 20.144C15.4682 19.312 15.2228 17.9787 15.3935 16.144C15.4788 14.9493 15.9908 13.7333 16.9295 12.496C17.8682 11.2373 18.8602 10.4053 19.9055 10C20.2042 9.808 20.4815 9.712 20.7375 9.712C20.9935 9.69067 21.4202 9.72267 22.0175 9.808C22.6362 9.89333 23.1162 10.1493 23.4575 10.576C23.9908 11.1093 24.2575 11.728 24.2575 12.432C24.1722 12.944 23.8415 13.5307 23.2655 14.192C22.6895 14.8533 21.9962 15.3867 21.1855 15.792C19.9908 16.1547 19.0202 16.08 18.2735 15.568C17.8895 15.4187 17.6228 15.4507 17.4735 15.664C17.3455 15.8773 17.2282 16.4107 17.1215 17.264C16.9508 18.736 17.3028 19.5467 18.1775 19.696C18.2628 19.7173 18.3908 19.7493 18.5615 19.792C18.7322 19.8133 18.8388 19.8347 18.8815 19.856C18.9455 19.856 19.0415 19.8667 19.1695 19.888C19.2975 19.888 19.4042 19.8773 19.4895 19.856C19.6602 19.8133 19.8202 19.7493 19.9695 19.664C20.1402 19.5573 20.2682 19.4827 20.3535 19.44C20.5242 19.3547 20.6308 19.3013 20.6735 19.28ZM26.9518 10.544C26.8024 10.5227 26.6744 10.448 26.5677 10.32C26.4824 10.192 26.4398 10.064 26.4398 9.936C26.4398 9.78667 26.5251 9.59467 26.6958 9.36C26.8878 9.104 27.0478 8.98667 27.1758 9.008C27.3251 9.008 27.6451 9.008 28.1358 9.008C28.6478 8.98667 28.9891 8.944 29.1598 8.88C29.3304 8.816 29.4478 8.69867 29.5118 8.528C29.7038 7.99467 29.9704 7.41867 30.3118 6.8C30.9518 5.56267 31.4638 4.784 31.8478 4.464C32.2318 4.144 32.6904 4.208 33.2238 4.656C33.3944 4.912 33.4798 5.08267 33.4798 5.168C33.5011 5.232 33.4371 5.41333 33.2878 5.712C33.1384 6.01067 32.9144 6.40533 32.6158 6.896C32.3384 7.36533 32.1464 7.70667 32.0398 7.92C31.6771 8.432 31.6238 8.70933 31.8798 8.752C32.1358 8.79467 32.7651 8.74133 33.7678 8.592C34.7918 8.42133 35.3571 8.70933 35.4638 9.456C35.5278 9.968 35.4744 10.2773 35.3038 10.384C35.1331 10.4907 34.6424 10.544 33.8318 10.544C33.1491 10.6507 32.4984 10.7147 31.8798 10.736C31.2824 10.736 30.9198 10.7573 30.7917 10.8C30.5358 10.864 30.3331 11.0667 30.1838 11.408C30.1198 11.4507 30.0451 11.568 29.9598 11.76C29.8318 12.016 29.5651 12.5173 29.1598 13.264C28.5838 14.9707 28.1998 16.4107 28.0078 17.584C27.8371 18.736 27.8051 19.4187 27.9118 19.632C28.0184 19.824 28.3918 19.952 29.0318 20.016C30.1198 20.144 31.2931 19.8347 32.5518 19.088L33.4158 18.576C33.6291 18.2347 33.8531 18.3413 34.0878 18.896C34.0878 19.1307 34.0664 19.312 34.0238 19.44C34.0024 19.568 33.8851 19.7493 33.6718 19.984C33.4798 20.2187 33.1704 20.4533 32.7438 20.688C31.1224 21.712 29.5651 22.0747 28.0718 21.776C27.7304 21.712 27.3784 21.488 27.0158 21.104C26.6744 20.6987 26.4504 20.3253 26.3438 19.984L26.1838 19.728C26.0558 19.6213 26.0131 19.0773 26.0558 18.096C26.0984 17.0933 26.1731 16.3893 26.2798 15.984C26.3864 15.5573 26.5784 14.9707 26.8558 14.224C27.1331 13.4773 27.3038 12.9867 27.3678 12.752L28.2318 10.896L26.9518 10.544ZM38.6335 21.04C38.2495 20.528 37.9935 20.0587 37.8655 19.632C37.7588 19.184 37.7055 18.64 37.7055 18C37.7055 17.36 37.7802 16.6667 37.9295 15.92C38.3135 14.1067 38.6015 12.9227 38.7935 12.368C38.8575 12.1333 38.7508 11.984 38.4735 11.92C38.2175 11.8347 37.9082 11.8027 37.5455 11.824C37.1828 11.824 36.9695 11.8027 36.9055 11.76L36.7775 11.568C36.7775 11.4613 36.7348 11.3547 36.6495 11.248C36.5855 11.12 36.6068 10.9813 36.7135 10.832C36.8415 10.6613 36.9695 10.5653 37.0975 10.544C37.2255 10.5227 37.4388 10.4907 37.7375 10.448C38.0575 10.4053 38.3135 10.3627 38.5055 10.32C39.1455 10.192 39.5935 9.95733 39.8495 9.616C40.1268 8.912 40.4788 8.12267 40.9055 7.248C41.3322 6.352 41.6202 5.81867 41.7695 5.648C42.1322 5.456 42.3988 5.38133 42.5695 5.424C42.7402 5.44533 42.9322 5.62667 43.1455 5.968C43.3802 6.18133 43.4548 6.42667 43.3695 6.704C43.3268 6.93867 42.8148 7.99467 41.8335 9.872C42.0895 9.91467 42.4308 9.91467 42.8575 9.872C43.5402 9.744 44.1268 9.712 44.6175 9.776C45.5348 9.776 46.0255 10.1707 46.0895 10.96C46.1322 11.1947 46.0895 11.3333 45.9615 11.376C45.8335 11.4187 45.0015 11.472 43.4655 11.536C41.9295 11.5787 41.1508 11.6427 41.1295 11.728C40.9162 11.8773 40.5535 12.9013 40.0415 14.8C39.7855 15.9733 39.6468 17.04 39.6255 18C39.6042 18.96 39.7322 19.6213 40.0095 19.984C40.2015 20.176 40.5642 20.2187 41.0975 20.112C41.6522 20.0053 42.1535 19.76 42.6015 19.376C43.0708 18.992 43.4335 18.9067 43.6895 19.12C43.9668 19.312 43.8922 19.7067 43.4655 20.304C43.0815 20.9013 42.5588 21.36 41.8975 21.68C41.2575 22 40.6815 22.096 40.1695 21.968C39.6788 21.8187 39.1668 21.5093 38.6335 21.04ZM50.4433 14.032C50.4433 14.3307 50.5179 14.576 50.6673 14.768C50.8166 14.96 51.0086 15.056 51.2433 15.056C51.8833 15.056 52.4379 14.736 52.9073 14.096C53.3766 13.456 53.6539 12.848 53.7393 12.272C53.8459 11.696 53.7819 11.3227 53.5473 11.152C53.0353 10.896 52.3099 11.184 51.3713 12.016C50.7953 12.5493 50.3686 13.0187 50.0913 13.424L49.6753 14.096C49.8459 14.032 50.0166 14 50.1873 14C50.3579 13.9787 50.4433 13.9893 50.4433 14.032ZM49.0993 15.504C48.5873 16.8693 48.3313 17.8827 48.3313 18.544C48.3313 19.2053 48.4166 19.6853 48.5873 19.984C48.7793 20.2613 49.1206 20.4 49.6113 20.4C50.1233 20.4 50.5393 20.3467 50.8593 20.24C51.1793 20.112 51.6379 19.824 52.2353 19.376L53.3233 18.736C53.4086 18.736 53.4939 18.6827 53.5793 18.576C53.7713 18.4907 53.9953 18.5227 54.2513 18.672C54.5073 18.8213 54.6353 19.0133 54.6353 19.248C54.5926 19.4187 54.4006 19.696 54.0593 20.08C53.7179 20.464 53.4619 20.6667 53.2913 20.688C52.9926 20.8373 52.8326 20.9227 52.8113 20.944H52.8433C52.6513 21.2 52.4593 21.328 52.2673 21.328H52.0113C51.9259 21.4987 51.6379 21.6693 51.1473 21.84C50.6779 22.0107 50.2299 22.096 49.8033 22.096C48.8646 22.096 48.0859 21.744 47.4673 21.04C46.8699 20.3147 46.5926 19.4187 46.6353 18.352C46.6993 16.7733 47.2219 15.088 48.2033 13.296C49.5686 10.7573 51.0833 9.488 52.7473 9.488C53.1526 9.488 53.6113 9.60533 54.1233 9.84C54.7846 10.1173 55.2326 10.6293 55.4673 11.376C55.5526 11.9947 55.5313 12.5387 55.4033 13.008C54.8913 14.5653 54.0166 15.696 52.7793 16.4C52.4379 16.6133 52.0113 16.72 51.4993 16.72C50.4966 16.72 49.7713 16.4 49.3233 15.76L49.0993 15.504ZM67.6015 12.88C67.2602 12.8587 66.9828 12.848 66.7695 12.848C66.5562 12.848 66.3108 12.912 66.0335 13.04C65.7775 13.1467 65.5855 13.2427 65.4575 13.328C65.3508 13.392 65.2015 13.4987 65.0095 13.648C64.8388 13.776 64.7322 13.8507 64.6895 13.872C63.5375 14.6187 62.6415 15.3227 62.0015 15.984C60.8495 17.2213 60.1882 18.096 60.0175 18.608C59.3348 20.2507 58.9082 21.136 58.7375 21.264C58.6095 21.5413 58.2895 21.52 57.7775 21.2C57.4575 21.2 57.2548 21.0293 57.1695 20.688C57.0842 20.432 57.2015 19.792 57.5215 18.768C57.8842 17.1893 58.1508 16.0587 58.3215 15.376C58.4282 15.1413 58.5668 14.7467 58.7375 14.192C58.9082 13.6373 59.0682 13.2107 59.2175 12.912C59.4735 11.952 59.8788 11.0027 60.4335 10.064C60.5828 9.78667 60.7642 9.648 60.9775 9.648C61.2548 9.37067 61.5855 9.40267 61.9695 9.744C62.2255 10 62.3215 10.32 62.2575 10.704C62.1935 11.088 61.9375 11.6213 61.4895 12.304C61.3615 12.624 61.2015 13.008 61.0095 13.456C60.6255 14.352 60.4015 14.992 60.3375 15.376C60.6148 15.0133 61.0842 14.5013 61.7455 13.84C62.4068 13.1573 63.1962 12.528 64.1135 11.952C65.0095 11.3333 65.8308 11.0773 66.5775 11.184C67.1535 11.1413 67.4948 11.7067 67.6015 12.88ZM73.0208 0.879999C73.4048 0.645333 73.6821 0.517333 73.8528 0.495998C74.0448 0.474665 74.3328 0.549332 74.7168 0.719999C75.4421 1.18933 75.7088 1.70133 75.5168 2.256C75.4314 2.832 75.2928 3.38667 75.1008 3.92C74.9088 4.432 74.7914 4.752 74.7488 4.88C74.5568 5.56267 74.0128 6.416 73.1168 7.44C73.1168 7.52533 73.0101 7.58933 72.7968 7.632C72.6048 7.67467 72.4554 7.71733 72.3488 7.76C72.0501 7.78133 71.8048 7.70667 71.6128 7.536C71.5701 7.344 71.8154 6.832 72.3488 6C72.8821 5.14667 73.2554 4.42133 73.4688 3.824C73.4688 3.73867 73.4794 3.664 73.5008 3.6C73.1381 3.664 72.7648 3.536 72.3808 3.216C71.6128 2.46933 71.8261 1.69067 73.0208 0.879999ZM77.1228 19.44L76.5468 19.216C76.5468 19.024 76.2374 18.7893 75.6188 18.512C74.4454 17.552 73.9121 16.9973 74.0188 16.848V16.688C73.8694 16.688 73.6988 16.4853 73.5068 16.08C73.3361 15.6533 73.2508 15.2587 73.2508 14.896C73.2508 14.512 73.4108 13.9787 73.7308 13.296C74.0721 12.6133 74.4988 12.0267 75.0108 11.536C75.5228 11.0453 76.2588 10.4907 77.2188 9.872C79.1814 8.592 80.5788 8.19733 81.4108 8.688C82.0508 9.072 82.4988 9.60533 82.7548 10.288C82.7548 11.632 82.5628 12.304 82.1788 12.304C82.0721 12.304 82.0188 12.3893 82.0188 12.56C82.0188 12.7307 81.8588 12.9547 81.5388 13.232C80.6001 13.9147 80.0668 13.968 79.9388 13.392C79.8321 13.1787 79.7361 13.072 79.6508 13.072C79.5228 13.008 79.4588 12.8693 79.4588 12.656L79.6508 12.304C79.7788 12.304 79.9921 12.0587 80.2908 11.568C80.5894 11.056 80.7388 10.7253 80.7388 10.576C80.7388 10.4267 80.7174 10.3413 80.6748 10.32C80.6534 10.2987 80.5574 10.288 80.3868 10.288C78.7228 11.0347 77.6881 11.6 77.2828 11.984C77.1974 12.1333 77.1441 12.2293 77.1228 12.272C77.1014 12.2933 77.0481 12.304 76.9628 12.304C76.9628 12.1333 76.6214 12.528 75.9388 13.488C75.7894 13.7013 75.5654 14.032 75.2668 14.48C75.1174 14.6293 75.0321 14.8427 75.0108 15.12C75.0108 15.3973 75.0001 15.5573 74.9788 15.6C74.9788 15.6427 74.9788 15.696 74.9788 15.76C75.0001 15.8027 75.0108 15.8453 75.0108 15.888C75.0321 15.9093 75.0641 15.952 75.1068 16.016C75.1708 16.0587 75.2241 16.1013 75.2668 16.144C75.3094 16.1653 75.3841 16.2187 75.4908 16.304C75.5974 16.3893 75.6934 16.464 75.7788 16.528C77.7201 17.9787 78.7548 18.9493 78.8828 19.44C79.2454 20.1013 79.3628 20.592 79.2348 20.912C79.1068 21.232 78.8081 21.4987 78.3388 21.712C77.8908 21.9253 77.2294 22.064 76.3548 22.128C75.4801 22.2133 74.8188 22.2133 74.3708 22.128C73.9868 21.9787 73.6134 21.7653 73.2508 21.488C72.8881 21.1893 72.6428 20.9333 72.5148 20.72C72.5148 20.4213 72.5788 20.2613 72.7068 20.24C72.8561 20.2187 73.5174 20.2613 74.6908 20.368C75.1601 20.368 75.6934 20.3147 76.2908 20.208C76.8881 20.08 77.2188 19.9413 77.2828 19.792C77.3468 19.7493 77.2934 19.632 77.1228 19.44ZM94.051 13.872V13.968C94.0083 13.968 93.9657 14.0427 93.923 14.192C93.9017 14.3413 93.8697 14.448 93.827 14.512C93.6777 14.64 93.603 14.9493 93.603 15.44C93.3683 16.016 93.1763 16.7413 93.027 17.616C92.8777 18.4907 92.8243 19.1413 92.867 19.568C92.9523 20.272 93.539 20.8373 94.627 21.264C95.1177 21.456 95.4803 21.552 95.715 21.552C96.2057 21.6587 97.187 21.5093 98.659 21.104C98.8937 21.04 99.171 20.9867 99.491 20.944C99.811 20.9013 100.142 20.816 100.483 20.688C101.358 20.4533 101.859 20.3787 101.987 20.464C102.222 20.656 102.286 20.912 102.179 21.232C102.115 21.4027 101.774 21.6587 101.155 22C100.536 22.3413 99.939 22.5973 99.363 22.768C98.7017 23.0667 97.9017 23.2587 96.963 23.344C96.0243 23.4293 95.3097 23.3867 94.819 23.216C93.987 23.0027 93.2297 22.5867 92.547 21.968C91.8643 21.328 91.427 20.656 91.235 19.952C91.171 19.4827 91.1283 18.9067 91.107 18.224C91.107 17.5413 91.139 17.1147 91.203 16.944C91.267 16.9013 91.2883 16.7947 91.267 16.624C91.267 16.4533 91.3417 16.1333 91.491 15.664C91.6617 15.1733 91.715 14.7893 91.651 14.512C91.7577 14.2773 91.8643 14.1067 91.971 14C92.1203 13.8293 92.1737 13.648 92.131 13.456C92.0883 13.2427 92.1737 12.9867 92.387 12.688L92.675 12.208C92.6963 12.0587 92.8563 11.5893 93.155 10.8C93.475 9.98933 93.6883 9.49867 93.795 9.328V9.264C93.8803 9.05067 93.9977 8.82667 94.147 8.592C94.275 7.73867 94.947 6.34133 96.163 4.4C97.9123 1.56267 99.0537 0.122665 99.587 0.079998C99.8217 0.058665 100.056 0.165332 100.291 0.4C100.526 0.634666 100.675 0.858665 100.739 1.072C100.888 1.584 100.867 1.86133 100.675 1.904C100.398 2.096 99.843 2.78933 99.011 3.984C98.179 5.17867 97.507 6.24533 96.995 7.184L95.747 9.776C95.235 10.864 94.755 12.0373 94.307 13.296C94.1363 13.4667 94.051 13.6587 94.051 13.872ZM105.077 18.928L105.205 18.256C105.183 18.128 105.269 17.776 105.461 17.2C105.845 16.3467 106.356 14.8427 106.997 12.688C106.997 12.432 107.167 12.2933 107.509 12.272C107.765 12.1867 107.957 12.1867 108.085 12.272C108.213 12.336 108.383 12.5387 108.597 12.88C108.917 13.2 108.885 13.776 108.501 14.608C108.138 15.44 107.914 16.08 107.829 16.528C107.509 17.232 107.263 17.904 107.093 18.544C106.943 19.184 106.805 19.6107 106.677 19.824C106.485 20.6987 106.303 21.2107 106.133 21.36C105.983 21.5093 105.749 21.424 105.429 21.104C105.13 20.7627 104.959 20.3787 104.917 19.952C104.874 19.5253 104.927 19.184 105.077 18.928ZM109.301 4.848C109.791 4.50667 110.271 4.70933 110.741 5.456C110.911 5.88267 110.965 6.224 110.901 6.48C110.837 6.71467 110.602 7.07733 110.197 7.568C109.621 8.336 109.045 8.47467 108.469 7.984C108.213 7.77067 108.074 7.504 108.053 7.184C108.031 6.864 108.042 6.69333 108.085 6.672C108.255 6.65067 108.447 6.46933 108.661 6.128C108.895 5.76533 109.002 5.47733 108.981 5.264C108.981 5.02933 109.087 4.89067 109.301 4.848ZM116.517 3.824C116.944 3.20533 117.477 2.61867 118.117 2.064C118.757 1.50933 119.28 1.14667 119.685 0.976C120.112 0.805333 120.56 0.719999 121.029 0.719999C121.499 0.719999 121.936 0.933332 122.341 1.36C122.768 1.76533 122.981 2.20267 122.981 2.672C122.981 3.696 122.459 4.976 121.413 6.512C120.965 6.74667 120.677 6.78933 120.549 6.64C120.507 6.59733 120.517 6.53333 120.581 6.448C120.581 6.40533 120.603 6.29867 120.645 6.128C120.795 5.65867 120.901 5.34933 120.965 5.2C121.029 5.02933 121.061 4.85867 121.061 4.688C121.424 3.28 121.413 2.576 121.029 2.576C120.837 2.55467 120.549 2.66133 120.165 2.896C119.781 3.10933 119.589 3.29067 119.589 3.44V3.568C119.483 3.54667 119.099 3.94133 118.437 4.752C117.797 5.54133 117.296 6.24533 116.933 6.864C116.101 8.592 115.472 10.096 115.045 11.376L115.557 11.44C115.856 11.4613 116.411 11.408 117.221 11.28C118.053 11.1307 118.619 11.1093 118.917 11.216C119.237 11.3227 119.483 11.5893 119.653 12.016C119.845 12.4213 119.664 12.72 119.109 12.912C118.576 13.104 117.477 13.2427 115.813 13.328C115.024 13.264 114.565 13.296 114.437 13.424C114.309 13.488 114.107 13.9467 113.829 14.8C113.573 15.6533 113.381 16.4533 113.253 17.2C113.019 18.1387 112.88 19.152 112.837 20.24C112.795 21.3067 112.848 22.064 112.997 22.512C113.275 23.5787 113.157 24.208 112.645 24.4C112.219 24.4427 111.856 24.1333 111.557 23.472C111.259 22.832 111.109 22 111.109 20.976C110.939 19.3547 111.365 16.72 112.389 13.072C112.688 12.0053 113.253 10.512 114.085 8.592C114.917 6.672 115.419 5.63733 115.589 5.488C115.675 5.50933 115.728 5.49867 115.749 5.456C115.771 5.392 115.781 5.328 115.781 5.264C115.781 5.2 115.813 5.104 115.877 4.976C115.963 4.82667 116.069 4.64533 116.197 4.432C116.325 4.19733 116.432 3.99467 116.517 3.824ZM124.006 14.032C124.006 14.3307 124.08 14.576 124.23 14.768C124.379 14.96 124.571 15.056 124.806 15.056C125.446 15.056 126 14.736 126.47 14.096C126.939 13.456 127.216 12.848 127.302 12.272C127.408 11.696 127.344 11.3227 127.11 11.152C126.598 10.896 125.872 11.184 124.934 12.016C124.358 12.5493 123.931 13.0187 123.654 13.424L123.238 14.096C123.408 14.032 123.579 14 123.75 14C123.92 13.9787 124.006 13.9893 124.006 14.032ZM122.662 15.504C122.15 16.8693 121.894 17.8827 121.894 18.544C121.894 19.2053 121.979 19.6853 122.15 19.984C122.342 20.2613 122.683 20.4 123.174 20.4C123.686 20.4 124.102 20.3467 124.422 20.24C124.742 20.112 125.2 19.824 125.798 19.376L126.886 18.736C126.971 18.736 127.056 18.6827 127.142 18.576C127.334 18.4907 127.558 18.5227 127.814 18.672C128.07 18.8213 128.198 19.0133 128.198 19.248C128.155 19.4187 127.963 19.696 127.622 20.08C127.28 20.464 127.024 20.6667 126.854 20.688C126.555 20.8373 126.395 20.9227 126.374 20.944H126.406C126.214 21.2 126.022 21.328 125.83 21.328H125.574C125.488 21.4987 125.2 21.6693 124.71 21.84C124.24 22.0107 123.792 22.096 123.366 22.096C122.427 22.096 121.648 21.744 121.03 21.04C120.432 20.3147 120.155 19.4187 120.198 18.352C120.262 16.7733 120.784 15.088 121.766 13.296C123.131 10.7573 124.646 9.488 126.31 9.488C126.715 9.488 127.174 9.60533 127.686 9.84C128.347 10.1173 128.795 10.6293 129.03 11.376C129.115 11.9947 129.094 12.5387 128.966 13.008C128.454 14.5653 127.579 15.696 126.342 16.4C126 16.6133 125.574 16.72 125.062 16.72C124.059 16.72 123.334 16.4 122.886 15.76L122.662 15.504ZM157.01 3.76C157.01 4.10133 156.914 4.44267 156.722 4.784C156.85 4.784 156.85 5.04 156.722 5.552L155.922 8.528C155.794 9.06133 155.303 10.2773 154.45 12.176C153.618 14.0533 153.074 15.184 152.818 15.568C152.519 16.1653 152.359 16.4747 152.338 16.496C152.167 17.008 151.805 17.6693 151.25 18.48C150.695 19.2907 150.279 19.7707 150.002 19.92C149.575 20.368 149.074 20.4107 148.498 20.048C147.943 19.664 147.581 19.024 147.41 18.128C147.41 18.0427 147.271 17.0507 146.994 15.152C146.738 13.232 146.621 12.0373 146.642 11.568C146.578 11.2693 146.557 10.8853 146.578 10.416C146.621 9.94667 146.631 9.59467 146.61 9.36C146.589 9.104 146.61 8.73067 146.674 8.24C146.738 7.728 146.77 7.33333 146.77 7.056C146.855 5.88267 146.354 6.32 145.266 8.368C145.159 8.70933 144.957 9.136 144.658 9.648C144.359 10.1387 144.221 10.4053 144.242 10.448L141.842 16.08C141.543 16.6773 141.191 17.7867 140.786 19.408C140.402 21.008 140.21 21.8293 140.21 21.872C140.21 21.8933 140.082 22.352 139.826 23.248C139.57 23.44 139.41 23.5573 139.346 23.6C139.303 23.664 139.239 23.6853 139.154 23.664C139.069 23.6427 138.941 23.472 138.77 23.152C138.557 23.024 138.429 22.896 138.386 22.768C138.322 22.5973 138.269 22.3627 138.226 22.064C138.247 21.6373 138.546 20.4853 139.122 18.608C139.549 17.1787 140.285 15.088 141.33 12.336L143.442 8.048C143.378 7.94133 143.655 7.26933 144.274 6.032C144.914 4.77333 145.458 3.78133 145.906 3.056C146.354 2.30933 146.663 1.86133 146.834 1.712C147.005 1.54133 147.197 1.50933 147.41 1.616C147.687 1.552 148.039 1.584 148.466 1.712C148.893 1.81867 149.117 1.968 149.138 2.16C149.223 2.33067 149.191 2.81067 149.042 3.6C148.765 5.584 148.626 7.19467 148.626 8.432C148.626 9.648 148.733 11.472 148.946 13.904L149.618 17.488C150.301 16.2293 151.282 14.096 152.562 11.088C152.818 10.8107 153.106 10.192 153.426 9.232C153.767 8.272 154.045 7.41867 154.258 6.672C154.471 5.92533 154.663 5.47733 154.834 5.328C154.813 5.15733 154.898 4.67733 155.09 3.888C155.282 3.09867 155.41 2.59733 155.474 2.384C155.602 2.27733 155.741 2.05333 155.89 1.712L156.786 1.456C157.17 1.75467 157.373 2.05333 157.394 2.352C157.437 2.62933 157.309 3.09867 157.01 3.76ZM162.335 18C163.615 16.1013 164.138 14.352 163.903 12.752C163.818 12.176 163.69 11.8667 163.519 11.824C162.9 11.568 162.218 11.824 161.471 12.592C160.575 13.616 159.764 15.3653 159.039 17.84C158.719 18.992 158.847 19.728 159.423 20.048C160.02 20.368 160.82 19.92 161.823 18.704C161.994 18.4907 162.164 18.256 162.335 18ZM162.175 9.936C162.644 9.744 162.964 9.648 163.135 9.648C163.306 9.648 163.562 9.776 163.903 10.032C164.415 10.1813 164.799 10.3947 165.055 10.672C165.332 10.928 165.546 11.3333 165.695 11.888C166.1 13.5093 165.791 15.3227 164.767 17.328C164.383 18.096 164.01 18.6933 163.647 19.12C163.284 19.5253 162.74 20.0373 162.015 20.656C161.311 21.2747 160.564 21.6587 159.775 21.808C159.412 21.8507 158.975 21.712 158.463 21.392C157.524 20.6453 157.076 19.9093 157.119 19.184C157.14 19.056 157.151 18.9387 157.151 18.832C157.151 18.7253 157.13 18.5973 157.087 18.448C156.959 18.3413 156.916 18.256 156.959 18.192C157.023 18.128 157.055 18.0853 157.055 18.064C157.226 18.0213 157.247 17.904 157.119 17.712C157.055 17.5413 157.087 17.1573 157.215 16.56C157.364 15.9413 157.546 15.3973 157.759 14.928C158.335 13.5627 158.964 12.5173 159.647 11.792C160.458 10.8747 161.3 10.256 162.175 9.936ZM171.696 19.856L172.24 19.824C172.539 19.696 172.379 20.4427 171.76 22.064C171.654 22.2347 171.536 22.416 171.408 22.608C171.302 22.8213 171.216 22.9707 171.152 23.056C171.088 23.1627 171.024 23.2587 170.96 23.344C170.854 23.5147 170.768 23.6 170.704 23.6C170 23.4933 169.52 23.2267 169.264 22.8C169.03 22.3947 168.976 21.7653 169.104 20.912C169.168 20.72 169.232 20.4853 169.296 20.208C169.403 19.6107 169.51 19.2693 169.616 19.184C169.702 19.0773 169.702 18.9813 169.616 18.896C169.616 18.6187 169.808 17.9893 170.192 17.008C170.064 16.8373 170.118 16.656 170.352 16.464C170.587 16.2507 170.662 16.0907 170.576 15.984C170.512 15.8773 170.555 15.6747 170.704 15.376C170.854 15.0773 171.024 14.736 171.216 14.352C171.43 13.968 171.558 13.712 171.6 13.584C171.579 13.52 171.75 13.0827 172.112 12.272C172.496 11.4613 172.742 10.96 172.848 10.768C173.019 10.6827 172.944 10.6187 172.624 10.576C172.326 10.512 171.718 10.48 170.8 10.48C169.883 10.48 169.222 10.3627 168.816 10.128C168.304 9.57333 168.464 9.27467 169.296 9.232L173.488 8.88L173.584 8.336C174.118 7.41867 174.427 6.69333 174.512 6.16C174.875 5.584 175.088 5.04 175.152 4.528C175.515 3.952 175.771 3.51467 175.92 3.216C176.07 2.896 176.155 2.72533 176.176 2.704C176.411 2.512 176.571 2.416 176.656 2.416C176.763 2.416 176.976 2.52267 177.296 2.736C178.107 3.248 178.31 3.68533 177.904 4.048C177.819 4.21867 177.691 4.56 177.52 5.072C177.072 5.62667 176.795 6.20267 176.688 6.8C176.24 7.73867 175.963 8.208 175.856 8.208C175.856 8.42133 176.016 8.528 176.336 8.528C177.04 8.48533 177.499 8.44267 177.712 8.4C177.926 8.35733 178.064 8.32533 178.128 8.304C178.32 8.28267 178.512 8.31467 178.704 8.4C178.875 8.656 178.971 8.92267 178.992 9.2C179.035 9.456 178.95 9.648 178.736 9.776C178.715 9.776 178.491 9.84 178.064 9.968C177.723 10.0533 176.752 10.1707 175.152 10.32C174.598 11.3867 174.267 12.0267 174.16 12.24C174.075 12.432 174.032 12.5493 174.032 12.592L172.688 15.408C172.603 15.408 172.56 15.472 172.56 15.6C172.646 15.856 172.635 16.0267 172.528 16.112C172.358 16.2613 172.208 16.432 172.08 16.624C172.187 16.7307 172.134 16.976 171.92 17.36C171.92 17.7227 171.771 18.2667 171.472 18.992C171.494 19.376 171.515 19.6213 171.536 19.728C171.558 19.8347 171.611 19.8773 171.696 19.856ZM184.05 14.096C184.413 13.9467 184.775 13.68 185.138 13.296C185.522 12.912 185.714 12.5813 185.714 12.304C185.714 12.0053 185.565 11.7707 185.266 11.6C184.967 11.408 184.615 11.3653 184.21 11.472C183.805 11.5787 183.389 11.824 182.962 12.208C182.535 12.592 182.183 12.976 181.906 13.36C181.629 13.7227 181.522 13.936 181.586 14C181.671 14.1707 182.013 14.2667 182.61 14.288C183.207 14.3093 183.687 14.2453 184.05 14.096ZM183.986 19.28C184.05 19.2373 184.082 19.216 184.082 19.216C184.103 19.216 184.125 19.2053 184.146 19.184C184.189 19.1627 184.21 19.1413 184.21 19.12C184.359 18.992 184.541 18.8213 184.754 18.608C184.989 18.3733 185.159 18.256 185.266 18.256C185.373 18.256 185.479 18.3093 185.586 18.416C185.714 18.5227 185.799 18.5867 185.842 18.608C186.183 18.608 186.13 18.8853 185.682 19.44C185.255 19.9947 184.722 20.4747 184.082 20.88C183.399 21.4773 182.589 21.7013 181.65 21.552C180.733 21.3813 179.997 20.912 179.442 20.144C178.781 19.312 178.535 17.9787 178.706 16.144C178.791 14.9493 179.303 13.7333 180.242 12.496C181.181 11.2373 182.173 10.4053 183.218 10C183.517 9.808 183.794 9.712 184.05 9.712C184.306 9.69067 184.733 9.72267 185.33 9.808C185.949 9.89333 186.429 10.1493 186.77 10.576C187.303 11.1093 187.57 11.728 187.57 12.432C187.485 12.944 187.154 13.5307 186.578 14.192C186.002 14.8533 185.309 15.3867 184.498 15.792C183.303 16.1547 182.333 16.08 181.586 15.568C181.202 15.4187 180.935 15.4507 180.786 15.664C180.658 15.8773 180.541 16.4107 180.434 17.264C180.263 18.736 180.615 19.5467 181.49 19.696C181.575 19.7173 181.703 19.7493 181.874 19.792C182.045 19.8133 182.151 19.8347 182.194 19.856C182.258 19.856 182.354 19.8667 182.482 19.888C182.61 19.888 182.717 19.8773 182.802 19.856C182.973 19.8133 183.133 19.7493 183.282 19.664C183.453 19.5573 183.581 19.4827 183.666 19.44C183.837 19.3547 183.943 19.3013 183.986 19.28ZM193.56 19.44L192.984 19.216C192.984 19.024 192.675 18.7893 192.056 18.512C190.883 17.552 190.35 16.9973 190.456 16.848V16.688C190.307 16.688 190.136 16.4853 189.944 16.08C189.774 15.6533 189.688 15.2587 189.688 14.896C189.688 14.512 189.848 13.9787 190.168 13.296C190.51 12.6133 190.936 12.0267 191.448 11.536C191.96 11.0453 192.696 10.4907 193.656 9.872C195.619 8.592 197.016 8.19733 197.848 8.688C198.488 9.072 198.936 9.60533 199.192 10.288C199.192 11.632 199 12.304 198.616 12.304C198.51 12.304 198.456 12.3893 198.456 12.56C198.456 12.7307 198.296 12.9547 197.976 13.232C197.038 13.9147 196.504 13.968 196.376 13.392C196.27 13.1787 196.174 13.072 196.088 13.072C195.96 13.008 195.896 12.8693 195.896 12.656L196.088 12.304C196.216 12.304 196.43 12.0587 196.728 11.568C197.027 11.056 197.176 10.7253 197.176 10.576C197.176 10.4267 197.155 10.3413 197.112 10.32C197.091 10.2987 196.995 10.288 196.824 10.288C195.16 11.0347 194.126 11.6 193.72 11.984C193.635 12.1333 193.582 12.2293 193.56 12.272C193.539 12.2933 193.486 12.304 193.4 12.304C193.4 12.1333 193.059 12.528 192.376 13.488C192.227 13.7013 192.003 14.032 191.704 14.48C191.555 14.6293 191.47 14.8427 191.448 15.12C191.448 15.3973 191.438 15.5573 191.416 15.6C191.416 15.6427 191.416 15.696 191.416 15.76C191.438 15.8027 191.448 15.8453 191.448 15.888C191.47 15.9093 191.502 15.952 191.544 16.016C191.608 16.0587 191.662 16.1013 191.704 16.144C191.747 16.1653 191.822 16.2187 191.928 16.304C192.035 16.3893 192.131 16.464 192.216 16.528C194.158 17.9787 195.192 18.9493 195.32 19.44C195.683 20.1013 195.8 20.592 195.672 20.912C195.544 21.232 195.246 21.4987 194.776 21.712C194.328 21.9253 193.667 22.064 192.792 22.128C191.918 22.2133 191.256 22.2133 190.808 22.128C190.424 21.9787 190.051 21.7653 189.688 21.488C189.326 21.1893 189.08 20.9333 188.952 20.72C188.952 20.4213 189.016 20.2613 189.144 20.24C189.294 20.2187 189.955 20.2613 191.128 20.368C191.598 20.368 192.131 20.3147 192.728 20.208C193.326 20.08 193.656 19.9413 193.72 19.792C193.784 19.7493 193.731 19.632 193.56 19.44Z" fill="black"/>
</svg>
