<svg id="圖層_1" data-name="圖層 1" xmlns="http://www.w3.org/2000/svg" viewBox="0 0 101.46 112.65"><g><animate
	      id="frame1"
	      attributeName="display"
	      values="inline;none;none"
	      keyTimes="0;0.5;1"
	      dur="2s"
	      begin="0s"
	      repeatCount="indefinite" /><defs><style>.cls-1{fill:#fff;}.cls-2{fill:#4e4850;}.cls-3{fill:#b9baba;}.cls-4{fill:#c5c6c6;}.cls-5{fill:#61b2e4;}.cls-6{fill:#666464;}.cls-7{fill:#ef803e;}.cls-8{fill:#3e3a39;}.cls-9{fill:#f1ab40;}</style></defs><title>IR showcase</title><rect class="cls-1" x="0.12" y="8.95" width="101.18" height="103.57"/><path class="cls-2" d="M101.18,9.07V112.4H.25V9.07H101.18m.25-.25H0V112.65H101.43V8.82Z"/><rect class="cls-3" x="6.18" y="80.69" width="58.65" height="15.21"/><rect class="cls-4" x="70.17" y="56.32" width="13.56" height="2.62"/><rect class="cls-2" x="70.17" y="51.04" width="25.56" height="2.62"/><rect class="cls-4" x="70.17" y="45.64" width="25.56" height="2.62"/><rect class="cls-4" x="70.17" y="40.24" width="25.56" height="2.62"/><rect class="cls-4" x="70.17" y="34.84" width="25.56" height="2.62"/><rect class="cls-4" x="70.17" y="29.44" width="25.56" height="2.62"/><rect class="cls-4" x="70.17" y="24.04" width="25.56" height="2.62"/><rect class="cls-4" x="70.17" y="18.64" width="25.56" height="2.62"/><rect class="cls-2" x="70.17" y="13.24" width="25.56" height="2.62"/><rect class="cls-4" x="70.17" y="60.94" width="13.56" height="2.62"/><rect class="cls-4" x="70.17" y="65.56" width="13.56" height="2.62"/><rect class="cls-4" x="70.17" y="70.18" width="13.56" height="2.62"/><rect class="cls-4" x="70.17" y="74.8" width="13.56" height="2.62"/><rect class="cls-4" x="70.17" y="79.42" width="13.56" height="2.62"/><rect class="cls-4" x="70.17" y="84.04" width="13.56" height="2.62"/><rect class="cls-4" x="70.17" y="88.67" width="13.56" height="2.62"/><rect class="cls-4" x="70.17" y="93.29" width="13.56" height="2.62"/><rect class="cls-4" x="70.17" y="97.91" width="13.56" height="2.62"/><rect class="cls-4" x="70.17" y="102.53" width="13.56" height="2.62"/><rect class="cls-4" x="6.18" y="66.56" width="30.75" height="2.62"/><rect class="cls-4" x="6.18" y="75.8" width="30.75" height="2.62"/><rect class="cls-4" x="39.13" y="66.56" width="25.3" height="2.62"/><rect class="cls-4" x="39.13" y="75.8" width="25.3" height="2.62"/><rect class="cls-4" x="6.18" y="15.79" width="30.75" height="2.62"/><rect class="cls-2" x="6.18" y="10.62" width="58.25" height="2.62"/><rect class="cls-4" x="6.18" y="20.41" width="30.75" height="2.62"/><rect class="cls-4" x="6.18" y="25.04" width="30.75" height="2.62"/><rect class="cls-4" x="39.13" y="15.79" width="25.3" height="2.62"/><rect class="cls-4" x="39.13" y="20.41" width="25.3" height="2.62"/><rect class="cls-4" x="39.13" y="25.04" width="25.3" height="2.62"/><rect class="cls-4" x="6.18" y="97.69" width="58.65" height="2.62"/><rect class="cls-4" x="6.18" y="102.31" width="58.65" height="2.62"/><rect class="cls-4" x="6.18" y="106.93" width="41.01" height="2.62"/><rect class="cls-5" x="6.18" y="30.84" width="58.25" height="35.22"/><path class="cls-1" d="M40.15,44.05a1.79,1.79,0,0,1,1.78,1.79v7.07a1.78,1.78,0,0,1-1.78,1.78H30.51a1.78,1.78,0,0,1-1.78-1.78V45.84a1.79,1.79,0,0,1,1.78-1.79h9.64m0-.46H30.51a2.24,2.24,0,0,0-2.24,2.25v7.07a2.24,2.24,0,0,0,2.24,2.24h9.64a2.24,2.24,0,0,0,2.25-2.24V45.84a2.25,2.25,0,0,0-2.25-2.25Z"/><path class="cls-1" d="M33.38,47.59c0-.62.44-.87,1-.57l3.19,1.8c.54.3.54.8,0,1.1l-3.19,1.8c-.54.31-1,.05-1-.57Z"/><rect class="cls-6" x="6.18" y="66.01" width="58.24" height="6.83"/><rect class="cls-7" x="15.1" y="65.98" width="12.1" height="6.83"/><rect class="cls-7" x="29.25" y="65.98" width="12.1" height="6.83"/><rect class="cls-7" x="43.4" y="65.98" width="12.1" height="6.83"/><path class="cls-1" d="M11.08,71.21a.13.13,0,0,1-.12-.08l-.73-1.65a.11.11,0,0,1,0-.11L11,67.71a.14.14,0,0,1,.18-.07.14.14,0,0,1,.07.18l-.71,1.6.71,1.6a.14.14,0,0,1-.07.18Z"/><path class="cls-1" d="M59.53,71.21h-.06A.14.14,0,0,1,59.4,71l.71-1.6-.71-1.6a.14.14,0,0,1,.25-.11l.73,1.66a.2.2,0,0,1,0,.11l-.73,1.65A.13.13,0,0,1,59.53,71.21Z"/><path class="cls-8" d="M2.52,0H98.94a2.52,2.52,0,0,1,2.52,2.52V9.23a0,0,0,0,1,0,0H0a0,0,0,0,1,0,0V2.52A2.52,2.52,0,0,1,2.52,0Z"/><rect class="cls-9" x="86.95" y="1.92" width="5.47" height="5.47" rx="0.76"/><rect class="cls-7" x="80.2" y="1.92" width="5.47" height="5.47" rx="0.76"/><rect class="cls-1" x="81.06" y="4.2" width="3.74" height="0.9"/><rect class="cls-5" x="93.59" y="1.93" width="5.47" height="5.47" rx="0.76"/><rect class="cls-1" x="93.8" y="4.2" width="5.05" height="0.93" transform="translate(31.5 -66.74) rotate(44.99)"/><rect class="cls-1" x="93.8" y="4.2" width="5.05" height="0.93" transform="translate(167.74 -60.15) rotate(135)"/><path class="cls-1" d="M91.6,6.62H87.66V2.67H91.6Zm-3.19-.75h2.44V3.42H88.41Z"/></g><g><animate
	      id="frame2"
	      attributeName="display"
	      values="none;inline;none"
	      keyTimes="0;0.5;1"
	      dur="2s"
	      begin="0s"
	      repeatCount="indefinite" /><defs><style>.cls-1{fill:#fff;}.cls-2{fill:#4e4850;}.cls-3{fill:#b9baba;}.cls-4{fill:#c5c6c6;}.cls-5{fill:#61b2e4;}.cls-6{fill:#666464;}.cls-7{fill:#ef803e;}.cls-8{fill:#3e3a39;}.cls-9{fill:#f1ab40;}</style></defs><title>IR story</title><rect class="cls-1" x="0.12" y="8.95" width="101.18" height="103.57"/><path class="cls-2" d="M101.18,9.07V112.4H.25V9.07H101.18m.25-.25H0V112.65H101.43V8.82Z"/><rect class="cls-3" x="6.18" y="80.69" width="58.65" height="15.21"/><rect class="cls-4" x="70.17" y="56.32" width="13.56" height="2.62"/><rect class="cls-2" x="70.17" y="51.04" width="25.56" height="2.62"/><rect class="cls-4" x="70.17" y="45.64" width="25.56" height="2.62"/><rect class="cls-4" x="70.17" y="40.24" width="25.56" height="2.62"/><rect class="cls-4" x="70.17" y="34.84" width="25.56" height="2.62"/><rect class="cls-4" x="70.17" y="29.44" width="25.56" height="2.62"/><rect class="cls-4" x="70.17" y="24.04" width="25.56" height="2.62"/><rect class="cls-4" x="70.17" y="18.64" width="25.56" height="2.62"/><rect class="cls-2" x="70.17" y="13.24" width="25.56" height="2.62"/><rect class="cls-4" x="70.17" y="60.94" width="13.56" height="2.62"/><rect class="cls-4" x="70.17" y="65.56" width="13.56" height="2.62"/><rect class="cls-4" x="70.17" y="70.18" width="13.56" height="2.62"/><rect class="cls-4" x="70.17" y="74.8" width="13.56" height="2.62"/><rect class="cls-4" x="70.17" y="79.42" width="13.56" height="2.62"/><rect class="cls-4" x="70.17" y="84.04" width="13.56" height="2.62"/><rect class="cls-4" x="70.17" y="88.67" width="13.56" height="2.62"/><rect class="cls-4" x="70.17" y="93.29" width="13.56" height="2.62"/><rect class="cls-4" x="70.17" y="97.91" width="13.56" height="2.62"/><rect class="cls-4" x="70.17" y="102.53" width="13.56" height="2.62"/><rect class="cls-4" x="6.18" y="66.56" width="30.75" height="2.62"/><rect class="cls-4" x="6.18" y="75.8" width="30.75" height="2.62"/><rect class="cls-4" x="39.13" y="66.56" width="25.3" height="2.62"/><rect class="cls-4" x="39.13" y="75.8" width="25.3" height="2.62"/><rect class="cls-4" x="6.18" y="15.79" width="30.75" height="2.62"/><rect class="cls-2" x="6.18" y="10.62" width="58.25" height="2.62"/><rect class="cls-4" x="6.18" y="20.41" width="30.75" height="2.62"/><rect class="cls-4" x="6.18" y="25.04" width="30.75" height="2.62"/><rect class="cls-4" x="39.13" y="15.79" width="25.3" height="2.62"/><rect class="cls-4" x="39.13" y="20.41" width="25.3" height="2.62"/><rect class="cls-4" x="39.13" y="25.04" width="25.3" height="2.62"/><rect class="cls-4" x="6.18" y="97.69" width="58.65" height="2.62"/><rect class="cls-4" x="6.18" y="102.31" width="58.65" height="2.62"/><rect class="cls-4" x="6.18" y="106.93" width="41.01" height="2.62"/><rect class="cls-5" x="6.18" y="30.84" width="58.25" height="35.22"/><path class="cls-1" d="M40.15,44.05a1.79,1.79,0,0,1,1.78,1.79v7.07a1.78,1.78,0,0,1-1.78,1.78H30.51a1.78,1.78,0,0,1-1.78-1.78V45.84a1.79,1.79,0,0,1,1.78-1.79h9.64m0-.46H30.51a2.24,2.24,0,0,0-2.24,2.25v7.07a2.24,2.24,0,0,0,2.24,2.24h9.64a2.24,2.24,0,0,0,2.25-2.24V45.84a2.25,2.25,0,0,0-2.25-2.25Z"/><path class="cls-1" d="M33.38,47.59c0-.62.44-.87,1-.57l3.19,1.8c.54.3.54.8,0,1.1l-3.19,1.8c-.54.31-1,.05-1-.57Z"/><rect class="cls-6" x="6.18" y="66.01" width="58.24" height="6.83"/><rect class="cls-7" x="15.1" y="65.98" width="12.1" height="6.83"/><path class="cls-1" d="M11.08,71.21a.13.13,0,0,1-.12-.08l-.73-1.65a.11.11,0,0,1,0-.11L11,67.71a.14.14,0,0,1,.18-.07.14.14,0,0,1,.07.18l-.71,1.6.71,1.6a.14.14,0,0,1-.07.18Z"/><path class="cls-1" d="M59.53,71.21h-.06A.14.14,0,0,1,59.4,71l.71-1.6-.71-1.6a.14.14,0,0,1,.25-.11l.73,1.66a.2.2,0,0,1,0,.11l-.73,1.65A.13.13,0,0,1,59.53,71.21Z"/><rect class="cls-3" x="29.37" y="67.41" width="11.95" height="1.25"/><rect class="cls-3" x="29.37" y="70.16" width="26.54" height="1.25"/><path class="cls-8" d="M2.52,0H98.94a2.52,2.52,0,0,1,2.52,2.52V9.23a0,0,0,0,1,0,0H0a0,0,0,0,1,0,0V2.52A2.52,2.52,0,0,1,2.52,0Z"/><rect class="cls-9" x="86.95" y="1.92" width="5.47" height="5.47" rx="0.76"/><rect class="cls-7" x="80.2" y="1.92" width="5.47" height="5.47" rx="0.76"/><rect class="cls-1" x="81.06" y="4.2" width="3.74" height="0.9"/><rect class="cls-5" x="93.59" y="1.93" width="5.47" height="5.47" rx="0.76"/><rect class="cls-1" x="93.8" y="4.2" width="5.05" height="0.93" transform="translate(31.5 -66.74) rotate(44.99)"/><rect class="cls-1" x="93.8" y="4.2" width="5.05" height="0.93" transform="translate(167.74 -60.15) rotate(135)"/><path class="cls-1" d="M91.6,6.62H87.66V2.67H91.6Zm-3.19-.75h2.44V3.42H88.41Z"/></g></svg>